<svg width="82" height="26" viewBox="0 0 82 26" fill="none" xmlns="http://www.w3.org/2000/svg">
<path d="M81.4095 18.2495C81.4168 18.2495 81.4167 18.2495 81.424 18.2495C81.4348 18.2495 81.4348 18.2495 81.4421 18.2495C81.67 18.2387 81.8545 18.0433 81.8545 17.8045C81.8545 17.7936 81.8545 17.7828 81.8545 17.7683C81.8545 17.7647 81.8545 17.7611 81.8545 17.7394C81.8545 15.4889 80.0925 13.6689 77.918 13.6689C75.7435 13.6689 73.9814 15.4925 73.9814 17.7394C73.9814 17.9058 73.9923 18.0759 74.0104 18.2387V18.2459L74.0176 18.2893C74.1262 19.0998 74.4699 19.8415 75.0162 20.4421C75.0162 20.4421 75.0162 20.4421 75.0199 20.4457C75.6241 21.1115 76.4454 21.5638 77.3536 21.7338L77.3644 21.7374L77.4223 21.7483C77.4513 21.7519 77.4838 21.7591 77.5272 21.7664C78.7248 21.9111 79.7886 21.7374 80.6859 21.2852C80.9066 21.173 81.1056 21.05 81.2793 20.9197C81.3335 20.8763 81.3842 20.8365 81.4276 20.8003C81.4493 20.7822 81.4674 20.7641 81.4783 20.7533C81.6809 20.5434 81.6953 20.4711 81.5723 20.2793C81.4385 20.0658 81.3191 19.8813 81.2178 19.7294C81.1816 19.6751 81.1526 19.6317 81.1237 19.5955C81.1092 19.5738 81.1092 19.5738 81.0984 19.5629C81.0947 19.5593 81.0947 19.5593 81.0911 19.5557C80.979 19.4182 80.903 19.4037 80.78 19.5123C80.7655 19.5231 80.7221 19.5593 80.7148 19.5665C79.8501 20.3372 78.667 20.5832 77.4874 20.3372C77.2667 20.2793 77.0605 20.2033 76.8724 20.1129C76.1342 19.7402 75.6096 19.0817 75.4577 18.3147L75.4468 18.2531H75.5083L81.4095 18.2495ZM75.5662 16.7733C75.8774 15.7566 76.8217 15.0764 77.9216 15.0764C78.9745 15.0764 79.9731 15.7892 80.3205 16.7697L80.3458 16.8384H75.5481L75.5662 16.7733Z" fill="#EE4D2D"/>
<path d="M72.179 18.2495C72.1863 18.2495 72.1863 18.2495 72.1935 18.2495C72.2044 18.2495 72.2044 18.2495 72.2116 18.2495C72.4396 18.2387 72.6241 18.0433 72.6241 17.8045C72.6241 17.7936 72.6241 17.7828 72.6241 17.7683C72.6241 17.7647 72.6241 17.7611 72.6241 17.7394C72.6241 15.4889 70.862 13.6689 68.6875 13.6689C66.513 13.6689 64.751 15.4925 64.751 17.7394C64.751 17.9058 64.7618 18.0759 64.7799 18.2387V18.2459L64.7872 18.2893C64.8957 19.0998 65.2394 19.8415 65.7858 20.4421C65.7858 20.4421 65.7858 20.4421 65.7894 20.4457C66.3936 21.1115 67.2149 21.5638 68.1231 21.7338L68.1339 21.7374L68.1918 21.7483C68.2208 21.7519 68.2533 21.7591 68.2968 21.7664C69.4944 21.9111 70.5581 21.7374 71.4554 21.2852C71.6761 21.173 71.8751 21.05 72.0488 20.9197C72.1031 20.8763 72.1537 20.8365 72.1971 20.8003C72.2188 20.7822 72.2369 20.7641 72.2478 20.7533C72.4504 20.5434 72.4649 20.4711 72.3419 20.2793C72.208 20.0658 72.0886 19.8813 71.9873 19.7294C71.9511 19.6751 71.9222 19.6317 71.8932 19.5955C71.8787 19.5738 71.8787 19.5738 71.8679 19.5629C71.8643 19.5593 71.8643 19.5593 71.8606 19.5557C71.7485 19.4182 71.6725 19.4037 71.5495 19.5123C71.535 19.5231 71.4916 19.5593 71.4844 19.5665C70.6196 20.3372 69.4365 20.5832 68.257 20.3372C68.0363 20.2793 67.83 20.2033 67.6419 20.1129C66.9038 19.7402 66.3791 19.0817 66.2272 18.3147L66.2163 18.2531H66.2778L72.179 18.2495ZM66.3321 16.7733C66.6433 15.7566 67.5876 15.0764 68.6875 15.0764C69.7404 15.0764 70.739 15.7892 71.0864 16.7697L71.1117 16.8384H66.314L66.3321 16.7733Z" fill="#EE4D2D"/>
<path d="M59.2629 13.6553C58.315 13.6553 57.4068 13.9809 56.6796 14.5743L56.5963 14.643V13.8977C56.5963 13.6987 56.5529 13.6553 56.3539 13.6553H55.4241C55.2214 13.6553 55.1816 13.6951 55.1816 13.8977V25.758C55.1816 25.9534 55.2251 26.0004 55.4241 26.0004H56.3539C56.5529 26.0004 56.5963 25.9534 56.5963 25.758V20.812L56.6796 20.8807C57.4068 21.4741 58.315 21.7997 59.2629 21.7997C61.517 21.7997 63.3442 19.9762 63.3442 17.7293C63.3478 15.4788 61.517 13.6553 59.2629 13.6553ZM59.2629 20.3814C57.8157 20.3814 56.6361 19.2308 56.5963 17.7908V17.6533C56.6325 16.2133 57.8157 15.0627 59.2629 15.0627C60.7355 15.0627 61.9295 16.2531 61.9295 17.7221C61.9295 19.191 60.7355 20.3814 59.2629 20.3814Z" fill="#EE4D2D"/>
<path d="M49.6312 13.6768C47.3373 13.6768 45.4775 15.5003 45.4775 17.7472C45.4775 19.9941 47.3373 21.8176 49.6312 21.8176C51.9251 21.8176 53.7848 19.9941 53.7848 17.7472C53.7884 15.4967 51.9287 13.6768 49.6312 13.6768ZM49.6312 20.4029C48.1333 20.4029 46.9176 19.2125 46.9176 17.7436C46.9176 16.2746 48.1333 15.0842 49.6312 15.0842C51.1291 15.0842 52.3448 16.2746 52.3448 17.7436C52.3448 19.2125 51.1291 20.4029 49.6312 20.4029Z" fill="#EE4D2D"/>
<path d="M40.2962 13.6659C39.4676 13.6659 38.668 13.93 38.0023 14.4221L37.9227 14.4836V8.97679C37.9227 8.79588 37.8612 8.73438 37.6803 8.73438H36.7034C36.5044 8.73438 36.4609 8.78141 36.4609 8.97679V21.539C36.4609 21.7308 36.508 21.7814 36.7034 21.7814H37.6803C37.8612 21.7814 37.9227 21.7199 37.9227 21.539V17.436C37.9227 16.0575 38.9611 15.1132 40.2962 15.1023C41.6023 15.0915 42.6697 16.0756 42.6697 17.4469V21.539C42.6697 21.7453 42.7059 21.7814 42.9121 21.7814H43.889C44.0952 21.7814 44.1314 21.7453 44.1314 21.539V17.4324C44.1242 15.3628 42.3947 13.6659 40.2962 13.6659Z" fill="#EE4D2D"/>
<path d="M26.6267 19.546C26.4856 19.7631 26.4241 19.85 26.3915 19.9006C26.2793 20.0634 26.2938 20.1394 26.4639 20.2805C26.8582 20.5989 27.3648 20.9318 27.7085 21.0982C28.6601 21.5613 29.6913 21.8074 30.7803 21.8291C31.4859 21.8653 32.3687 21.6988 33.0272 21.4058C34.2176 20.8775 34.9774 19.8427 35.1113 18.5728C35.3283 16.514 33.9824 15.226 30.5126 14.1875C28.8989 13.6702 28.1391 12.9791 28.1391 12.0167C28.1861 10.9529 29.1775 10.1569 30.5162 10.1063C31.5944 10.1099 32.546 10.3921 33.4795 10.9927C33.6785 11.1121 33.7689 11.0904 33.8992 10.9167C33.9136 10.8914 33.9571 10.8299 34.1344 10.5766C34.3008 10.3415 34.3551 10.2619 34.3695 10.2365C34.4817 10.0267 34.4636 9.94707 34.2646 9.80235C34.0656 9.66124 33.5048 9.37179 33.1864 9.24515C32.2963 8.89057 31.3773 8.72052 30.4619 8.73861C28.3779 8.78203 26.7533 10.1316 26.6448 11.9045C26.576 13.1817 27.2273 14.2129 28.5913 14.9727C28.9749 15.1717 30.3679 15.6999 31.0227 15.8881C32.8752 16.4272 33.8413 17.4222 33.6423 18.5945C33.4614 19.6582 32.3397 20.3674 30.7659 20.418C29.6261 20.3927 28.4756 19.9766 27.477 19.2313C27.4733 19.2276 27.448 19.2095 27.401 19.1734C27.3358 19.1263 27.3358 19.1263 27.325 19.1191C27.1224 18.978 27.003 18.9925 26.8763 19.1734C26.8546 19.1987 26.7027 19.4339 26.6267 19.546Z" fill="#EE4D2D"/>
<path fill-rule="evenodd" clip-rule="evenodd" d="M19.0351 24.6215C20.1567 24.5926 21.0649 23.6844 21.159 22.5628L21.1662 22.4289L21.9586 6.4367C21.9586 6.42946 21.9586 6.42222 21.9586 6.41137C21.9586 6.15086 21.7487 5.94101 21.4882 5.94101C21.4846 5.94101 21.4846 5.94101 21.481 5.94101H16.3902C16.2672 2.63402 13.8901 0 10.9775 0C8.06487 0 5.69136 2.63402 5.56834 5.94101H0.463124C0.206235 5.94463 0 6.15448 0 6.41137C0 6.42222 0 6.4367 0 6.44755L0.723631 22.3783L0.734485 22.5773C0.846648 23.6844 1.6535 24.5781 2.75703 24.6179L18.9519 24.6215H19.0351ZM10.9775 1.43641C13.0977 1.43641 14.8272 3.43725 14.9104 5.94101H7.04816C7.12776 3.43725 8.85724 1.43641 10.9775 1.43641ZM15.0045 18.4273C14.8598 19.6104 14.1397 20.5584 13.0217 21.0323C12.3994 21.2965 11.5636 21.4376 10.9015 21.3941C9.87032 21.3543 8.90066 21.1047 8.00698 20.6488C7.68858 20.486 7.21098 20.1604 6.84555 19.8564C6.75148 19.7805 6.74062 19.7298 6.80213 19.643C6.83469 19.5923 6.8962 19.5055 7.03007 19.3065C7.22545 19.0206 7.25078 18.9881 7.27249 18.9519C7.334 18.8578 7.43531 18.847 7.53662 18.9266C7.54747 18.9338 7.54747 18.9338 7.55471 18.941C7.5728 18.9519 7.5728 18.9519 7.60898 18.9845C7.64878 19.0134 7.67049 19.0315 7.68134 19.0387C8.64377 19.7877 9.76902 20.2219 10.9015 20.2653C12.479 20.2436 13.6115 19.5417 13.8141 18.4598C14.0384 17.2695 13.0977 16.2419 11.2561 15.6702C10.6808 15.4893 9.22629 14.914 8.95855 14.7585C7.69943 14.024 7.10967 13.0652 7.19289 11.8748C7.31953 10.2285 8.86086 9.00197 10.8038 8.99473C11.6722 8.99473 12.5405 9.17202 13.3727 9.51936C13.6694 9.64238 14.194 9.92822 14.3749 10.0621C14.4799 10.1381 14.5016 10.2285 14.4401 10.3226C14.4075 10.3769 14.3496 10.4673 14.2338 10.6518V10.6555C14.0782 10.8979 14.0746 10.9051 14.0384 10.963C13.9769 11.0535 13.9046 11.0643 13.796 10.9956C12.906 10.4022 11.9146 10.1019 10.8291 10.0802C9.47595 10.1055 8.46286 10.9051 8.39412 11.9978C8.37603 12.9819 9.12137 13.702 10.7242 14.2483C13.9914 15.2831 15.236 16.5024 15.0045 18.4273Z" fill="#EE4D2D"/>
</svg>
